<svg width="48" height="48" viewBox="0 0 48 48" fill="none" xmlns="http://www.w3.org/2000/svg">
<path d="M16 42V34H32V42H16ZM6 32.5V23.35C6 22.9167 6.08333 22.5 6.25 22.1C6.41667 21.7 6.66667 21.3667 7 21.1L22 7.8C22.2667 7.53334 22.575 7.34167 22.925 7.225C23.275 7.10834 23.6333 7.05 24 7.05C24.3667 7.05 24.725 7.10834 25.075 7.225C25.425 7.34167 25.7333 7.53334 26 7.8L30 11.35L6 32.5ZM9 42C8.16667 42 7.45833 41.7083 6.875 41.125C6.29167 40.5417 6 39.8333 6 39V35.2L14 28.1V42H9ZM34 42V25.6L25.45 18L31.5 12.65L41 21.1C41.3333 21.4 41.5833 21.7417 41.75 22.125C41.9167 22.5083 42 22.9167 42 23.35V39C42 39.8333 41.7083 40.5417 41.125 41.125C40.5417 41.7083 39.8333 42 39 42H34Z" fill="white"/>
</svg>
